<?xml version="1.0" encoding="utf-8"?>
<!-- Generator: Adobe Illustrator 21.0.1, SVG Export Plug-In . SVG Version: 6.00 Build 0)  -->
<svg version="1.1" id="Слой_1" xmlns="http://www.w3.org/2000/svg" xmlns:xlink="http://www.w3.org/1999/xlink" x="0px" y="0px"
	 viewBox="0 0 19.4 32.7" style="enable-background:new 0 0 19.4 32.7;" xml:space="preserve">
<style type="text/css">
	.st0{fill:none;}
	.st1{fill:#29ABE2;}
	.st2{fill:#BDEEFF;}
</style>
<title></title>
<g id="phone">
	<rect id="wrapper" x="-6.3" y="0.5" class="st0" width="32" height="32"/>
	<path class="st1" d="M14.4,31.5H5c-2.8,0-5-2.2-5-5V6.6c0-2.8,2.2-5,5-5h9.4c2.8,0,5,2.2,5,5v19.9C19.4,29.2,17.2,31.5,14.4,31.5z
		 M5,3.6c-1.6,0-3,1.3-3,3v19.9c0,1.7,1.3,3,3,3h9.4c1.7,0,3-1.3,3-3V6.6c0-1.7-1.3-3-3-3H5z"/>
	<path class="st1" d="M13.9,27.9H5.6c-0.6,0-1-0.4-1-1s0.4-1,1-1h8.3c0.6,0,1,0.4,1,1S14.4,27.9,13.9,27.9z"/>
	<path class="st2" d="M12.1,5.9H7.3c-0.5,0-0.9-0.4-1-0.9L5.7,2.6h7.9L13,5.1C12.9,5.6,12.5,5.9,12.1,5.9z"/>
	<path class="st1" d="M12.1,6.9H7.3c-1,0-1.8-0.7-1.9-1.6L4.8,2.8C4.7,2.5,4.8,2.2,5,2c0.2-0.3,0.5-0.4,0.8-0.4h7.9
		c0.3,0,0.6,0.1,0.8,0.4c0.2,0.2,0.3,0.6,0.2,0.9L14,5.3C13.8,6.2,13,6.9,12.1,6.9z M7.1,3.6l0.3,1.2l4.7,0.1l0.3-1.3H7.1z"/>
</g>
<title></title>
</svg>
