<?xml version="1.0" encoding="utf-8"?>
<!-- Generator: Adobe Illustrator 21.0.1, SVG Export Plug-In . SVG Version: 6.00 Build 0)  -->
<svg version="1.1" id="Слой_1" xmlns:serif="http://www.serif.com/"
	 xmlns="http://www.w3.org/2000/svg" xmlns:xlink="http://www.w3.org/1999/xlink" x="0px" y="0px" viewBox="0 0 515.6 430.5"
	 style="enable-background:new 0 0 515.6 430.5;" xml:space="preserve">
<style type="text/css">
	.st0{fill:none;}
	.st1{fill:url(#Rounded-Rectangle-1-copy-2_1_);}
	.st2{fill:#FFFFFF;}
	.st3{clip-path:url(#SVGID_2_);}
	.st4{fill:#E5F1FF;}
	.st5{fill:#0084FF;}
	.st6{fill:#55D7FF;}
	.st7{fill:#0BBC00;}
	.st8{fill:#CCE6FF;fill-opacity:0.1608;}
	.st9{fill:url(#Rounded-Rectangle-1-copy-21_1_);}
	.st10{clip-path:url(#SVGID_4_);}
	.st11{fill:url(#Rounded-Rectangle-1_1_);}
	.st12{clip-path:url(#SVGID_6_);}
	.st13{fill:#70D1FF;fill-opacity:0.5294;}
</style>
<rect id="_19.-Site-cloning" x="-23" y="-27.5" class="st0" width="592.8" height="519.7"/>
<g id="Group-1-copy">
	
		<linearGradient id="Rounded-Rectangle-1-copy-2_1_" gradientUnits="userSpaceOnUse" x1="-24.438" y1="652.5507" x2="-23.438" y2="652.5507" gradientTransform="matrix(2.233859e-14 364.8167 364.8167 -2.233859e-14 -237754.1563 9144.3154)">
		<stop  offset="0" style="stop-color:#EFF6FF"/>
		<stop  offset="1" style="stop-color:#C3DAF6"/>
	</linearGradient>
	<path id="Rounded-Rectangle-1-copy-2" class="st1" d="M515.6,121.3c0-12.4-10.1-22.5-22.5-22.5H121.3c-12.4,0-22.5,10.1-22.5,22.5
		V408c0,12.4,10.1,22.5,22.5,22.5h371.8c12.4,0,22.5-10.1,22.5-22.5V121.3z"/>
	<path id="Rounded-Rectangle-2-copy" class="st2" d="M118.6,162.5h372.7v234.4c0,7.2-5.8,13-13,13H136.4c-9.8,0-17.8-8-17.8-17.8
		L118.6,162.5L118.6,162.5z"/>
	<g>
		<defs>
			<path id="SVGID_1_" d="M118.6,162.5h372.7v234.4c0,7.2-5.8,13-13,13H136.4c-9.8,0-17.8-8-17.8-17.8L118.6,162.5L118.6,162.5z"/>
		</defs>
		<clipPath id="SVGID_2_">
			<use xlink:href="#SVGID_1_"  style="overflow:visible;"/>
		</clipPath>
		<g class="st3">
			<rect id="Rectangle-1-copy" x="149.4" y="180.4" class="st4" width="299.5" height="62.1"/>
			<rect id="Rectangle-2-copy-5" x="151.8" y="255.4" class="st4" width="95.7" height="51.7"/>
			<rect id="Rectangle-2-copy-4" x="151.8" y="328.1" class="st4" width="202" height="63"/>
			<rect id="Rectangle-2-copy-3" x="365.9" y="328.1" class="st4" width="82.3" height="63"/>
			<rect id="Rectangle-3-copy" x="261.3" y="255.8" class="st4" width="83" height="18.5"/>
			<rect id="Rectangle-4-copy" x="260.6" y="287.5" class="st4" width="188.5" height="19.8"/>
		</g>
	</g>
	<circle id="Ellipse-1-copy-5" class="st5" cx="167.8" cy="129.3" r="10.6"/>
	<circle id="Ellipse-1-copy-4" class="st6" cx="137.3" cy="129.3" r="10.6"/>
	<circle id="Ellipse-1-copy-3" class="st7" cx="198.3" cy="129.3" r="10.6"/>
	<path id="Rounded-Rectangle-3-copy" class="st4" d="M426.4,128.6c0-5.4-4.4-9.7-9.7-9.7h-102c-5.4,0-9.7,4.4-9.7,9.7v1.6
		c0,5.4,4.4,9.7,9.7,9.7h102c5.4,0,9.7-4.4,9.7-9.7V128.6z"/>
	<path id="Rounded-Rectangle-3-copy-3" class="st4" d="M493.9,128.5c0-5.4-4.4-9.8-9.8-9.8h-13.5c-5.4,0-9.8,4.4-9.8,9.8v1.6
		c0,5.4,4.4,9.8,9.8,9.8h13.5c5.4,0,9.8-4.4,9.8-9.8V128.5z"/>
</g>
<g id="Group-1">
	<path id="Rounded-Rectangle-1-copy-31" class="st8" d="M492.9,87.9c0-12.4-10.1-22.5-22.5-22.5H94.1c-12.4,0-22.5,10.1-22.5,22.5
		v290.4c0,12.4,10.1,22.5,22.5,22.5h376.2c12.4,0,22.5-10.1,22.5-22.5V87.9L492.9,87.9z"/>
	
		<linearGradient id="Rounded-Rectangle-1-copy-21_1_" gradientUnits="userSpaceOnUse" x1="-24.438" y1="652.5828" x2="-23.438" y2="652.5828" gradientTransform="matrix(2.376247e-14 388.0701 388.0701 -2.376247e-14 -252984.3906 9608.3281)">
		<stop  offset="0" style="stop-color:#DFEFFF"/>
		<stop  offset="1" style="stop-color:#8CC3FC"/>
	</linearGradient>
	<path id="Rounded-Rectangle-1-copy-21" class="st9" d="M471.8,67.9c0-12.4-10.1-22.5-22.5-22.5H77.6c-12.4,0-22.5,10.1-22.5,22.5
		v286.7c0,12.4,10.1,22.5,22.5,22.5h371.8c12.4,0,22.5-10.1,22.5-22.5C471.8,354.6,471.8,67.9,471.8,67.9z"/>
	<path id="Rounded-Rectangle-2-copy2" class="st2" d="M74.8,109h372.7v234.4c0,7.2-5.8,13-13,13H92.7c-9.8,0-17.8-8-17.8-17.8
		L74.8,109L74.8,109z"/>
	<g>
		<defs>
			<path id="SVGID_3_" d="M74.8,109h372.7v234.4c0,7.2-5.8,13-13,13H92.7c-9.8,0-17.8-8-17.8-17.8L74.8,109L74.8,109z"/>
		</defs>
		<clipPath id="SVGID_4_">
			<use xlink:href="#SVGID_3_"  style="overflow:visible;"/>
		</clipPath>
		<g class="st10">
			<rect id="Rectangle-1-copy1" x="105.7" y="127" class="st4" width="299.5" height="62.1"/>
			<rect id="Rectangle-2-copy-51" x="108" y="201.9" class="st4" width="95.7" height="51.7"/>
			<rect id="Rectangle-2-copy-41" x="108" y="274.6" class="st4" width="202" height="63"/>
			<rect id="Rectangle-2-copy-31" x="322.1" y="274.6" class="st4" width="82.3" height="63"/>
			<rect id="Rectangle-3-copy1" x="217.6" y="202.3" class="st4" width="83" height="18.5"/>
			<rect id="Rectangle-4-copy1" x="216.9" y="234" class="st4" width="188.5" height="19.8"/>
		</g>
	</g>
	<circle id="Ellipse-1-copy-51" class="st5" cx="124.1" cy="75.9" r="10.6"/>
	<circle id="Ellipse-1-copy-41" class="st6" cx="93.5" cy="75.9" r="10.6"/>
	<circle id="Ellipse-1-copy-31" class="st7" cx="154.5" cy="75.9" r="10.6"/>
	<path id="Rounded-Rectangle-3-copy1" class="st4" d="M382.7,75.2c0-5.4-4.4-9.7-9.7-9.7h-102c-5.4,0-9.7,4.4-9.7,9.7v1.6
		c0,5.4,4.4,9.7,9.7,9.7h102c5.4,0,9.7-4.4,9.7-9.7V75.2z"/>
	<path id="Rounded-Rectangle-3-copy-31" class="st4" d="M450.2,75.1c0-5.4-4.4-9.8-9.8-9.8h-13.5c-5.4,0-9.8,4.4-9.8,9.8v1.6
		c0,5.4,4.4,9.8,9.8,9.8h13.5c5.4,0,9.8-4.4,9.8-9.8V75.1z"/>
</g>
<path id="Rounded-Rectangle-1-copy" class="st8" d="M437.8,42.5c0-12.4-10.1-22.5-22.5-22.5H39c-12.4,0-22.5,10.1-22.5,22.5v290.4
	c0,12.4,10.1,22.5,22.5,22.5h376.2c12.4,0,22.5-10.1,22.5-22.5V42.5z"/>
<linearGradient id="Rounded-Rectangle-1_1_" gradientUnits="userSpaceOnUse" x1="-24.438" y1="652.602" x2="-23.438" y2="652.602" gradientTransform="matrix(1.779617e-14 290.6331 290.6331 -1.779617e-14 -189459.3594 7289.479)">
	<stop  offset="0" style="stop-color:#CCE6FF"/>
	<stop  offset="1" style="stop-color:#1D98FF"/>
</linearGradient>
<path id="Rounded-Rectangle-1" class="st11" d="M416.8,22.5c0-12.4-10.1-22.5-22.5-22.5H22.5C10.1,0,0,10.1,0,22.5v286.7
	c0,12.4,10.1,22.5,22.5,22.5h371.8c12.4,0,22.5-10.1,22.5-22.5C416.8,309.2,416.8,22.5,416.8,22.5z"/>
<path id="Rounded-Rectangle-2" class="st2" d="M19.8,63.7h372.7v234.4c0,7.2-5.8,13-13,13H37.6c-9.8,0-17.8-8-17.8-17.8
	C19.8,293.2,19.8,63.7,19.8,63.7z"/>
<g>
	<defs>
		<path id="SVGID_5_" d="M19.8,63.7h372.7v234.4c0,7.2-5.8,13-13,13H37.6c-9.8,0-17.8-8-17.8-17.8C19.8,293.2,19.8,63.7,19.8,63.7z"
			/>
	</defs>
	<clipPath id="SVGID_6_">
		<use xlink:href="#SVGID_5_"  style="overflow:visible;"/>
	</clipPath>
	<g class="st12">
		<rect id="Rectangle-1" x="36.5" y="81.6" class="st4" width="345.2" height="62.1"/>
		<rect id="Rectangle-2" x="39.3" y="156.6" class="st4" width="110.3" height="51.7"/>
		<rect id="Rectangle-2-copy" x="39.3" y="229.2" class="st4" width="232.7" height="63"/>
		<rect id="Rectangle-2-copy-2" x="286" y="229.2" class="st4" width="94.8" height="63"/>
		<rect id="Rectangle-3" x="165.5" y="156.9" class="st4" width="95.7" height="18.5"/>
		<rect id="Rectangle-4" x="164.7" y="188.7" class="st4" width="217.2" height="19.8"/>
	</g>
</g>
<circle id="Ellipse-1" class="st5" cx="69" cy="30.5" r="10.6"/>
<circle id="Ellipse-1-copy" class="st6" cx="38.5" cy="30.5" r="10.6"/>
<circle id="Ellipse-1-copy-2" class="st7" cx="99.5" cy="30.5" r="10.6"/>
<path id="Rounded-Rectangle-3" class="st4" d="M327.6,29.8c0-5.4-4.4-9.7-9.7-9.7h-102c-5.4,0-9.7,4.4-9.7,9.7v1.6
	c0,5.4,4.4,9.7,9.7,9.7h102c5.4,0,9.7-4.4,9.7-9.7V29.8z"/>
<path id="Rounded-Rectangle-3-copy-2" class="st4" d="M395.1,29.7c0-5.4-4.4-9.8-9.8-9.8h-13.5c-5.4,0-9.8,4.4-9.8,9.8v1.6
	c0,5.4,4.4,9.8,9.8,9.8h13.5c5.4,0,9.8-4.4,9.8-9.8V29.7z"/>
<path id="Shape-1-copy-2" class="st13" d="M250.3,302.1c-3.9,0-7.7,1.8-9.2,4.5c-1,1.8-0.8,3.8,0.5,6.1c5,8.7,9,18.3,13.3,28.5
	c4.8,11.5,9.8,23.4,16.7,35.6c8.8,15.4,13.2,23.9,15.3,28.2l63.4,0c1.9-3.5,5.5-9.9,12.5-22c14.1-24.4,13.5-49.4,13.5-49.6l-0.1-24
	c0-0.2,0-0.4,0-0.5c0-0.5,0.8-12.2-7.4-14.1c-0.7-0.2-1.3-0.2-1.9-0.2c-0.9,0-3.8,0-5.3,6c-0.3,2-0.6,3.2-0.6,3.2
	c-0.7,3-3.6,4.9-6.6,4.4c-3-0.5-5.1-3.2-4.9-6.3c0-0.3,0.1-1.7,0.6-3.6c0.7-5.7,0-10.6-2-13.1c-0.8-1-2.2-2.3-5.7-2.5
	c-4.7-0.3-7.9,0.5-8.5,6.5l0.2,5.7c0.1,3.1-2.1,5.8-5.1,6.1c-3,0.4-5.8-1.7-6.4-4.7c-0.1-0.4-0.6-3.5-0.4-7.4l-0.1-3.7
	c0-0.6,0-1.1,0.2-1.7c0,0,1-4.5-1.1-7.2c-1.7-2.2-5.4-2.7-8.2-2.8h0c-3.7,0-7.1,0.9-8.3,7.5l0.3,11.7c0.1,3.1-2.1,5.7-5.1,6
	c-3,0.4-5.8-1.7-6.4-4.7c-0.1-0.3-1.4-6.9-0.5-13.9l-1.1-41.7c0-0.2,0-0.4,0-0.6c0.1-1.5-0.2-5.9-2.4-8.3c-1.1-1.2-2.8-1.9-5.1-1.9
	c-8.3,0-8.8,9.6-8.8,10.7l-0.8,72c0,2.8-2,5.2-4.8,5.8c-2.7,0.5-5.5-1-6.5-3.7C260,303.1,253.1,302.1,250.3,302.1L250.3,302.1
	L250.3,302.1z"/>
<path id="Shape-1-copy" class="st2" d="M248.1,290.1c-3.3,0-6.5,1.6-7.8,3.8c-0.8,1.5-0.7,3.2,0.4,5.1c4.2,7.3,7.6,15.5,11.3,24.1
	c4.1,9.7,8.3,19.8,14.2,30c7.4,13,11.2,20.2,12.9,23.9l53.8,0c1.6-3,4.7-8.4,10.6-18.6c12-20.6,11.5-41.7,11.5-41.9l0-20.2
	c0-0.2,0-0.3,0-0.4c0-0.4,0.7-10.3-6.3-11.9c-0.6-0.1-1.1-0.2-1.6-0.2c-0.8,0-3.2,0-4.5,5.1c-0.2,1.7-0.5,2.7-0.5,2.7
	c-0.6,2.5-3.1,4.2-5.6,3.8c-2.5-0.4-4.3-2.7-4.1-5.3c0-0.2,0.1-1.4,0.5-3c0.6-4.8,0-9-1.7-11c-0.7-0.8-1.9-1.9-4.8-2.1
	c-4-0.3-6.7,0.4-7.2,5.5l0.2,4.8c0.1,2.6-1.8,4.9-4.4,5.2c-2.6,0.4-4.9-1.4-5.4-4c-0.1-0.3-0.5-2.9-0.3-6.2l-0.1-3.1
	c0-0.5,0-1,0.1-1.4c0,0,0.8-3.8-0.9-6.1c-1.5-1.9-4.6-2.3-7-2.3h0c-3.1,0-6,0.8-7,6.3l0.3,9.9c0.1,2.6-1.8,4.8-4.3,5.1
	c-2.5,0.3-4.9-1.4-5.4-3.9c0-0.2-1.2-5.8-0.4-11.7l-1-35.3c0-0.2,0-0.3,0-0.5c0.1-1.2-0.2-5-2-7c-1-1-2.4-1.6-4.3-1.6
	c-7,0-7.4,8.1-7.4,9l-0.7,60.8c0,2.4-1.7,4.4-4.1,4.9c-2.3,0.4-4.6-0.9-5.5-3.1C256.3,291,250.5,290.1,248.1,290.1L248.1,290.1
	L248.1,290.1z"/>
<path id="Shape-1" class="st5" d="M276,387c-2,0-3.8-1.2-4.6-3.1c-0.1-0.1-2.6-6.2-13.8-25.7c-6.2-10.8-10.7-21.6-14.7-31.1
	c-3.5-8.3-6.8-16.2-10.7-23c-2.9-5-3.1-10.6-0.5-15.2c3-5.3,9.4-8.8,16.4-8.8c4.1,0,7.9,1.2,11.2,3.3l0.6-47
	c0.2-6.6,4-18.8,17.2-18.8c5,0.1,8.9,1.7,11.7,4.8c4.7,5.2,4.7,12.4,4.6,14.1l0.6,21.1c2.1-0.9,4.6-1.4,7.3-1.4
	c6.9,0.1,11.9,2.2,15,6.3c0.7,0.9,1.3,1.9,1.7,2.8c2.6-1.2,5.5-1.7,9.2-1.4c4.9,0.4,9,2.4,11.8,5.8c1.3,1.6,2.2,3.4,2.8,5.3
	c2.7-1.2,5.8-1.5,9.2-0.7c12.2,2.7,14.5,15.6,14,22.3l0,19.9c0,0.8,0.6,24.1-12.8,47.1c-9.1,15.8-11.1,19.5-11.6,20.3
	c-0.2,0.5-0.5,1-0.8,1.4c-1,1.2-2.6,1.9-4.1,1.8L276,387L276,387L276,387z M248.1,290.1c-3.3,0-6.5,1.6-7.8,3.8
	c-0.8,1.5-0.7,3.2,0.4,5.1c4.2,7.3,7.6,15.5,11.3,24.1c4.1,9.7,8.3,19.8,14.2,30c7.4,13,11.2,20.2,12.9,23.9l53.8,0
	c1.6-3,4.7-8.4,10.6-18.6c12-20.6,11.5-41.7,11.5-41.9l0-20.2c0-0.2,0-0.3,0-0.4c0-0.4,0.7-10.3-6.3-11.9c-0.6-0.1-1.1-0.2-1.6-0.2
	c-0.8,0-3.2,0-4.5,5.1c-0.2,1.7-0.5,2.7-0.5,2.7c-0.6,2.5-3.1,4.2-5.6,3.8c-2.5-0.4-4.3-2.7-4.1-5.3c0-0.2,0.1-1.4,0.5-3
	c0.6-4.8,0-9-1.7-11c-0.7-0.8-1.9-1.9-4.8-2.1c-4-0.3-6.7,0.4-7.2,5.5l0.2,4.8c0.1,2.6-1.8,4.9-4.4,5.2c-2.6,0.4-4.9-1.4-5.4-4
	c-0.1-0.3-0.5-2.9-0.3-6.2l-0.1-3.1c0-0.5,0-1,0.1-1.4c0,0,0.8-3.8-0.9-6.1c-1.5-1.9-4.6-2.3-7-2.3h0c-3.1,0-6,0.8-7,6.3l0.3,9.9
	c0.1,2.6-1.8,4.8-4.3,5.1c-2.5,0.3-4.9-1.4-5.4-3.9c0-0.2-1.2-5.8-0.4-11.7l-1-35.3c0-0.2,0-0.3,0-0.5c0.1-1.2-0.2-5-2-7
	c-1-1-2.4-1.6-4.3-1.6c-7,0-7.4,8.1-7.4,9l-0.7,60.8c0,2.4-1.7,4.4-4.1,4.9c-2.3,0.4-4.6-0.9-5.5-3.1
	C256.3,291,250.5,290.1,248.1,290.1L248.1,290.1L248.1,290.1z"/>
</svg>
