<?xml version="1.0" encoding="utf-8"?>
<!-- Generator: Adobe Illustrator 21.0.1, SVG Export Plug-In . SVG Version: 6.00 Build 0)  -->
<svg version="1.1" id="Layer_1" xmlns="http://www.w3.org/2000/svg" xmlns:xlink="http://www.w3.org/1999/xlink" x="0px" y="0px"
	 viewBox="0 0 36 25" style="enable-background:new 0 0 36 25;" xml:space="preserve">
<style type="text/css">
	.st0{opacity:0.3;fill:#29ABE2;enable-background:new    ;}
	.st1{fill:#29ABE2;}
</style>
<title></title>
<g id="VK_Logo">
	<path class="st0" d="M31,10.5c0.2-0.5,1.3-2.4,2.2-3.9C35.4,3,36,1.9,36,1.5C36,1.2,35.8,1,35.5,1H30c-0.2,0-0.4,0.2-0.5,0.4
		c-0.3,1.9-4.7,7.3-5.4,7.6c-0.4,0-0.6-0.7-0.6-2V1.6c0.1-0.4,0-0.9-0.3-1.2C22.8,0,22.1,0,20.4,0c-3.2,0-4.3,1-4.3,1.8
		c0,0.3,0.2,0.5,0.4,0.5l0,0c0.2,0.1,1,0.9,1,3.7c0,2.9-0.5,3-0.5,3c-1.8,0-4-4.7-5-7.7c-0.1-0.2-0.3-0.4-0.5-0.4h-5
		C6.2,0.9,6,1.1,6,1.4v0.1c0.7,4,8.6,16.4,13.7,16.4h2.5c1.2,0,1.4-1.3,1.5-2.4s0.3-1.6,0.7-1.6c0.8,0,2.3,1.5,3.3,2.5
		s1.6,1.5,2.1,1.5H33c1.6,0,3,0,3-1.1c0-0.5-0.6-1.2-2.8-3.7C32.5,12.3,31.7,11.4,31,10.5z"/>
	<path class="st1" d="M20,19c0.2-0.5,1.1-1.7,1.7-2.7c1.9-2.8,2.3-3.4,2.3-3.8c0-0.3-0.2-0.5-0.5-0.5H19c-0.2,0-0.4,0.2-0.5,0.4
		c-0.3,1.4-3.5,5.3-4,5.6c-0.2,0-0.5-0.5-0.5-1.5v-4.2c0.1-0.3,0-0.7-0.2-0.9C13.4,11,12.9,11,11.5,11C8.9,11,8,11.8,8,12.5
		C8,12.8,8.2,13,8.4,13l0,0c0,0,0.6,0.4,0.6,2.5c0,0.8,0,1.7-0.1,2.5c-1.3-0.2-3-3.4-3.9-5.7C4.9,12.1,4.7,12,4.5,12h-4
		C0.2,12,0,12.2,0,12.5v0.1C0.6,15.6,6.9,25,11,25h2c1.1,0,1.1-1.2,1.2-1.9s0.1-1.1,0.3-1.1c0.6,0,1.9,1.1,2.7,1.8S18.6,25,19,25
		h2.5c1.3,0,2.5,0,2.5-1c0-0.4-0.3-0.8-2.2-3C21.1,20.3,20.3,19.4,20,19z M21.5,24h-2.4c-0.4-0.3-0.8-0.6-1.2-0.9
		c-1.1-1-2.4-2.1-3.4-2.1c-1.1,0-1.2,1.2-1.3,2c0,0.3-0.1,0.9-0.2,1h-2c-3,0-8.7-7.6-9.9-11h3c0.6,1.5,2.6,6,4.8,6c1,0,1-1.4,1-3.5
		c0-1.8-0.4-2.7-0.8-3.1c0.7-0.3,1.5-0.4,2.3-0.4c0.5,0,1,0,1.5,0.1c0,0.1,0,0.1,0,0.2v4.2c0,1.5,0.6,2.5,1.5,2.5s4.2-4.2,4.9-6h3.3
		c-0.4,0.7-1.2,1.9-1.8,2.7c-1.7,2.5-1.9,3-1.9,3.3s0.3,0.7,2,2.7c0.6,0.7,1.6,1.8,1.9,2.2C22.4,24,22,24,21.5,24L21.5,24z"/>
</g>
</svg>
