<svg id="Слой_1" data-name="Слой 1" xmlns="http://www.w3.org/2000/svg" viewBox="0 0 460 81.98"><defs><style>.cls-1{fill:#005ba6;}.cls-2{fill:#e31e25;}</style></defs><title>logo_gorodskoe_bti</title><path class="cls-1" d="M16.14,78.59C10.82,68.58,5.58,58.65.26,48.72c.25-.17.42-.25.68-.42C11.41,42.88,22,37.46,32.44,32a1.71,1.71,0,0,1,1.27-.17c4.65,1,9.38,1.92,14,2.92l16.81,3.5c2.28.5,4.65.92,6.93,1.42a5.87,5.87,0,0,1,.68.25,9.3,9.3,0,0,1,2.62,2.5,3.66,3.66,0,0,1-.17,4.92,8.94,8.94,0,0,1-2.79,2.25,2.63,2.63,0,0,1-1.6.25,26.25,26.25,0,0,1-4.48-.5c-3.55-.67-7-1.5-10.47-2.25a28.85,28.85,0,0,0-5.91-.83,12.21,12.21,0,0,0-2.45.25A1.94,1.94,0,0,0,45.37,49,4,4,0,0,0,46,50.64c.68,1.25,1.44,2.42,2.2,3.59a1.16,1.16,0,0,0,.68.42l6.33,1,8.11,1.25,6.93,1c1,.17,2.11.25,3.13.5a2.21,2.21,0,0,0,1.44-.25c4.56-2.5,9.21-5.09,13.77-7.59,3.46-1.92,6.93-3.84,10.3-5.76a1.9,1.9,0,0,1,1.35-.25,17.84,17.84,0,0,1,4.14.67,20.77,20.77,0,0,1,2,.83,5.08,5.08,0,0,1,2.79,5.42,18.35,18.35,0,0,1-.76,3.09,1.44,1.44,0,0,1-.84,1c-4.05,2.17-8.19,4.42-12.25,6.59-7.43,4-14.78,8-22.21,12a4,4,0,0,1-1.94.5c-2.62,0-5.24.08-7.86.08-2.11,0-4.22-.08-6.33-.17s-4.31-.25-6.42-.33-4.14-.25-6.17-.33c-1.86-.08-3.63-.08-5.49-.17a65,65,0,0,0-10.64.58,26.84,26.84,0,0,0-9.46,2.75C18,77.42,17.16,78,16.14,78.59Z"/><path class="cls-1" d="M32.78,12.18c.42-.25.76-.42,1-.58C39.28,8,44.78,4.42,50.18.75A5,5,0,0,1,52.8,0a5,5,0,0,1,2.11.75L66.4,8.34c12.33,8.18,24.66,16.27,37,24.45a8.84,8.84,0,0,1,.93.67,2,2,0,0,1,0,2.84,2.45,2.45,0,0,1-1.27.75,4.37,4.37,0,0,1-3.8-.5c-4-2.67-7.94-5.26-11.91-7.84Q70.24,17.44,53.14,6.09C53.05,6,53,6,52.88,5.92a.7.7,0,0,0-1,0L44.18,11C31.35,19.52,18.51,27.95,5.67,36.46A4.26,4.26,0,0,1,2,37C1.87,37,1.78,37,1.7,37A2.33,2.33,0,0,1,0,35a2.21,2.21,0,0,1,1.18-2.09l6.08-4C11.16,26.28,15,23.69,19,21.19a1.43,1.43,0,0,0,.68-1.33v-12a4.84,4.84,0,0,1,3-4.67,7.79,7.79,0,0,1,7.18,0A4.66,4.66,0,0,1,31,3.92a4.4,4.4,0,0,1,1.77,3.59v4.67Z"/><path class="cls-2" d="M459.75,72.17h-6.93c-.08-2,0-4,0-5.92V60.32c0-2,.08-4,.17-5.92s.25-3.92.34-5.92a8.66,8.66,0,0,0-.93,2c-.34.67-.59,1.33-.93,2s-.68,1.33-1,2.09l-1,2c-.34.67-.68,1.33-1.1,2s-.76,1.33-1.1,2-.76,1.25-1.1,1.92-.76,1.33-1.1,2-.76,1.25-1.1,1.92-.76,1.33-1.1,2-.76,1.25-1.1,1.92-.76,1.33-1.1,1.92H432V39.13h6.84c.08,1.33,0,2.75,0,4.09V55.57c0,1.42-.08,2.75-.08,4.17s-.17,2.67-.08,4.09a11.49,11.49,0,0,0,1.18-2.25,19.86,19.86,0,0,0,1.1-2.34c.34-.75.76-1.5,1.18-2.25s.76-1.5,1.18-2.25l1.27-2.25,1.27-2.25L447.16,48l1.27-2.25,1.27-2.25L451,41.21,452.23,39H460C459.75,50.14,459.75,61.16,459.75,72.17Z"/><path class="cls-2" d="M376.38,72.08v-33c.51-.17,20.78-.17,22.13-.08a35.57,35.57,0,0,1,0,6H383.9v5.76c.42,0,.84-.08,1.18-.08a20.89,20.89,0,0,1,8.78.75A13.3,13.3,0,0,1,398,53.73a9.25,9.25,0,0,1,3.29,6.51,12.15,12.15,0,0,1-.34,3.92,9.11,9.11,0,0,1-4.22,5.59A17.64,17.64,0,0,1,390.57,72a33.15,33.15,0,0,1-8.11.5c-1.77-.08-3.55-.25-5.32-.33A2.37,2.37,0,0,1,376.38,72.08Zm7.43-5.26a11.77,11.77,0,0,0,5.41-.08,8,8,0,0,0,2.2-1.17c2.53-1.92,3-6.76-.93-8.51a11.37,11.37,0,0,0-6.67-.58Z"/><path class="cls-2" d="M255.34,48.31V67.08c.93.08,1.77.08,2.7.17-.08,4.25-.25,8.51-.34,12.85h-5.57c-.08-2.59-.17-5.17-.34-7.68-.59-.17-14.44-.17-15.54-.08-.08,2.5-.17,5.09-.34,7.68h-5.66L230,67.25c.51,0,.93-.08,1.35-.08a1.4,1.4,0,0,0,1.27-.75,21,21,0,0,0,2.62-6.92,30,30,0,0,0,.59-6.17v-5l.08-.08H236c.17,0,.34-.08.59-.08H255C255.17,48.22,255.26,48.22,255.34,48.31Zm-12.84,5.34c.17,4.59-.34,9-2.62,13.1a63,63,0,0,0,8-.08c.17-1.08.08-12.6-.08-13.1C246.14,53.65,244.36,53.65,242.51,53.65Z"/><path class="cls-2" d="M182.28,70.17V81.85a74.73,74.73,0,0,1-7.52.08c0-11.18,0-22.44-.08-33.71h6.42c.08,1.17.25,2.17.34,3.42l.51-.5a9.16,9.16,0,0,1,6.59-3.42c4.31-.42,7.43,1.42,9.63,5a11.31,11.31,0,0,1,1.6,4.92,16,16,0,0,1-.93,8.18,10.48,10.48,0,0,1-7.77,6.67,9.28,9.28,0,0,1-6-.5,5.76,5.76,0,0,1-2.28-1.67c-.08-.08-.17-.25-.25-.33C182.37,70.08,182.37,70.17,182.28,70.17Zm-.08-9.93c.08,1.08,0,2,.17,2.92A4.66,4.66,0,0,0,188.11,67a4.92,4.92,0,0,0,3.55-3.34,8.38,8.38,0,0,0,.51-2.84,9.56,9.56,0,0,0-.93-4.84,4.61,4.61,0,0,0-4.9-2.42,4.83,4.83,0,0,0-3.89,3.84A11.4,11.4,0,0,0,182.2,60.24Z"/><path class="cls-2" d="M156.94,47.64a14.15,14.15,0,0,1,6.25,1.17,11.16,11.16,0,0,1,6.67,9.43,13.92,13.92,0,0,1-.34,5.59c-1.27,4.76-4.39,7.59-9.21,8.68a14.16,14.16,0,0,1-8.11-.5,11.27,11.27,0,0,1-7.52-9.34A14.28,14.28,0,0,1,145,56.4a11.17,11.17,0,0,1,9-8.34A15.57,15.57,0,0,1,156.94,47.64ZM162.18,60a17,17,0,0,0-.17-1.75,8.75,8.75,0,0,0-1.1-3.25,4.15,4.15,0,0,0-2.36-1.92,4.45,4.45,0,0,0-4.65,1.33,6.19,6.19,0,0,0-1.1,2.09,12.1,12.1,0,0,0,0,7.34,6.26,6.26,0,0,0,1.44,2.5,4.21,4.21,0,0,0,6.33-.42,15.45,15.45,0,0,0,.93-1.59A14.59,14.59,0,0,0,162.18,60Z"/><path class="cls-2" d="M321.73,47.64A14.15,14.15,0,0,1,328,48.81a11.12,11.12,0,0,1,6.59,8.76,14.47,14.47,0,0,1-.34,6.59A11.26,11.26,0,0,1,326.8,72a14.4,14.4,0,0,1-9.54.08A11.13,11.13,0,0,1,309.48,63a14.1,14.1,0,0,1,.25-6.51,11.14,11.14,0,0,1,9-8.43A17.58,17.58,0,0,1,321.73,47.64Zm5.32,12.51a10.61,10.61,0,0,0-1.35-5.34,4.3,4.3,0,0,0-7-.25,7,7,0,0,0-1.1,2.25,12.78,12.78,0,0,0,0,6.67,6.06,6.06,0,0,0,1.27,2.42,4.18,4.18,0,0,0,6.76-.25,9.47,9.47,0,0,0,.84-1.59A15.19,15.19,0,0,0,327.05,60.15Z"/><path class="cls-2" d="M215.65,47.64a13.9,13.9,0,0,1,6.93,1.5,11.25,11.25,0,0,1,5.83,7.51,14.67,14.67,0,0,1-.25,8.09,11.52,11.52,0,0,1-9,7.93,13.45,13.45,0,0,1-7.69-.42A11.08,11.08,0,0,1,203.57,63a13.06,13.06,0,0,1,.34-6.51,11.08,11.08,0,0,1,9-8.26A7.6,7.6,0,0,1,215.65,47.64Zm5.24,12.43a13.87,13.87,0,0,0-.17-1.67,8.65,8.65,0,0,0-1.18-3.5,4.3,4.3,0,0,0-7.09-.25,7.26,7.26,0,0,0-1,2.17,11.24,11.24,0,0,0,0,6.67,6.06,6.06,0,0,0,1.27,2.42,4.27,4.27,0,0,0,5,1.25A4.58,4.58,0,0,0,220,64.91,13,13,0,0,0,220.88,60.07Z"/><path class="cls-2" d="M359.07,66.24c.34,1.75.68,3.34,1,5-.84.25-1.6.58-2.45.75a24.09,24.09,0,0,1-9.46.5,11,11,0,0,1-9.8-9.68,14.94,14.94,0,0,1,1.1-8.34,11.4,11.4,0,0,1,9.8-6.84,12,12,0,0,1,4.22.25,9.34,9.34,0,0,1,6.33,4.84A14.65,14.65,0,0,1,361.35,61l-.25,1.5H345.38a2.54,2.54,0,0,0,.08.83,4.61,4.61,0,0,0,2,2.67,8,8,0,0,0,3.63,1.08,21.5,21.5,0,0,0,6.93-.67A3.67,3.67,0,0,0,359.07,66.24Zm-4.65-8.76a5.07,5.07,0,0,0-1.6-4,4,4,0,0,0-1.69-.83A4.45,4.45,0,0,0,346.06,55a6.2,6.2,0,0,0-.76,2.5Z"/><path class="cls-2" d="M292.09,62.82v9.26a55.64,55.64,0,0,1-7.52.08V48.31a55.18,55.18,0,0,1,7.43,0c.08,1.59,0,3.09,0,4.67v4.67a.84.84,0,0,0,1.18-.42c1.77-2.84,3.63-5.59,5.41-8.43a1.32,1.32,0,0,1,1.27-.67h7.94c-3,3.5-5.91,6.84-8.87,10.26.17.08.25.17.34.17a6,6,0,0,1,3.13,2,11.33,11.33,0,0,1,2,3.17c.51,1.25,1,2.42,1.52,3.67l1.77,4.25c.08.17.08.25.17.42-.25,0-.42.08-.59.08H300.7a.81.81,0,0,1-.84-.58c-.59-1.5-1.18-3-1.86-4.51a12.16,12.16,0,0,0-1.18-2.34,4.41,4.41,0,0,0-4.39-2.17h-.25C292.25,62.74,292.25,62.74,292.09,62.82Z"/><path class="cls-2" d="M427.82,39v6.17H418.7c0,.33-.08.67-.08.92V72.08H411V45.22h-8.87a37.66,37.66,0,0,1,0-6.17Z"/><path class="cls-2" d="M126.45,39.13h20.27v6H134.05c-.08,1.59,0,3,0,4.51V72.08a56.49,56.49,0,0,1-7.52,0C126.45,61.16,126.45,50.14,126.45,39.13Z"/><path class="cls-2" d="M280.34,48.64c-.42,1.75-.76,3.5-1.18,5.34-.84-.17-1.69-.42-2.45-.5a9.32,9.32,0,0,0-3.72.17,6,6,0,0,0-4.56,5.59,8.51,8.51,0,0,0,.25,3.25A6.1,6.1,0,0,0,274.26,67a12.45,12.45,0,0,0,4.65-.5,1.08,1.08,0,0,1,.51-.08c.34,1.84.59,3.59.93,5.34a9.61,9.61,0,0,1-2,.67,20.57,20.57,0,0,1-8.45.08,11.22,11.22,0,0,1-9.12-9.59,13.88,13.88,0,0,1,.68-7.18,11.87,11.87,0,0,1,8.11-7.34,18.21,18.21,0,0,1,10.14,0c.17.08.34.08.51.17C280.26,48.47,280.26,48.56,280.34,48.64Z"/></svg>