<?xml version="1.0" encoding="utf-8"?>
<!-- Generator: Adobe Illustrator 21.0.1, SVG Export Plug-In . SVG Version: 6.00 Build 0)  -->
<svg version="1.1" id="Слой_1" xmlns="http://www.w3.org/2000/svg" xmlns:xlink="http://www.w3.org/1999/xlink" x="0px" y="0px"
	 viewBox="0 0 1536 1537.4" style="enable-background:new 0 0 1536 1537.4;" xml:space="preserve">
<style type="text/css">
	.st0{fill:#FFFFFF;}
</style>
<path class="st0" d="M1280,1066.4c0-7.3-0.7-12.7-2-16c-2-5.3-14.8-15.2-38.5-29.5c-23.7-14.3-53.2-30.8-88.5-49.5l-53-29
	c-3.3-2-9.7-6.3-19-13s-17.7-11.7-25-15s-14.3-5-21-5c-12,0-27.7,10.8-47,32.5s-38.3,43.5-57,65.5c-18.7,22-33.3,33-44,33
	c-4.7,0-10.2-1.2-16.5-3.5s-11.5-4.5-15.5-6.5s-9.7-5.2-17-9.5c-7.3-4.3-12-7.2-14-8.5c-66-36.7-122.8-78.8-170.5-126.5
	c-47.7-47.7-89.8-104.5-126.5-170.5c-1.3-2-4.2-6.7-8.5-14s-7.5-13-9.5-17s-4.2-9.2-6.5-15.5S497,657,497,652.4
	c0-8.7,6.8-19.8,20.5-33.5s28.7-26.5,45-38.5s31.3-25.2,45-39.5s20.5-26.5,20.5-36.5c0-6.7-1.7-13.7-5-21s-8.3-15.7-15-25
	s-11-15.7-13-19c-2-4-7-13.5-15-28.5s-16.3-30.2-25-45.5s-17.5-31.2-26.5-47.5s-17.3-29.8-25-40.5s-13.2-16.7-16.5-18s-8.7-2-16-2
	c-32,0-65.7,7.3-101,22c-30.7,14-57.3,45.5-80,94.5s-34,92.5-34,130.5c0,10.7,0.8,22,2.5,34s3.3,22.2,5,30.5s4.7,19.3,9,33
	s7.7,23.5,10,29.5s6.5,17,12.5,33s9.7,26,11,30c40,109.3,112.2,216.2,216.5,320.5s211.2,176.5,320.5,216.5c4,1.3,14,5,30,11
	s27,10.2,33,12.5s15.8,5.7,29.5,10s24.7,7.3,33,9s18.5,3.3,30.5,5s23.3,2.5,34,2.5c38,0,81.5-11.3,130.5-34s80.5-49.3,94.5-80
	C1272.7,1132,1280,1098.4,1280,1066.4z M1536,289.4v960c0,79.3-28.2,147.2-84.5,203.5s-124.2,84.5-203.5,84.5H288
	c-79.3,0-147.2-28.2-203.5-84.5S0,1328.7,0,1249.4v-960C0,210,28.2,142.2,84.5,85.9S208.7,1.4,288,1.4h960
	c79.3,0,147.2,28.2,203.5,84.5S1536,210,1536,289.4z"/>
</svg>
