<?xml version="1.0" encoding="utf-8"?>
<!-- Generator: Adobe Illustrator 21.0.1, SVG Export Plug-In . SVG Version: 6.00 Build 0)  -->
<svg version="1.1" id="Layer_1" xmlns="http://www.w3.org/2000/svg" xmlns:xlink="http://www.w3.org/1999/xlink" x="0px" y="0px"
	 viewBox="0 0 512 512" style="enable-background:new 0 0 512 512;" xml:space="preserve">
<style type="text/css">
	.st0{fill:#FFFFFF;}
</style>
<g>
	<path class="st0" d="M293.6,149.4c1.2,30.5-2.1,62.6,1.2,91c0.9,8.5,8.8,17.2,19.4,6.7c28.7-29.6,53.2-86.5,56.3-96.5
		c1.5-5.4,5.7-7.9,10.9-7.9h76.5c8.8,0,23.6,4.5,12.7,25.7c-19.7,37.8-39.6,56.6-62,89.8c-6.4,9.4-9.1,18.7-1.5,26.3
		c22.1,22.1,48.1,44.1,62.6,66.2c10.6,16.9,0.6,29.9-14.5,29.9H388c-8.8,0-16-3.6-23-9.4c-14.5-11.5-25.1-26.3-38.1-39.3
		c-12.1-11.8-20.6-11.5-26.3-0.3c-4.8,8.5-5.4,18.2-6.4,35.7c-0.6,8.5-6.4,12.1-14.2,13.3h-32.7c-68,0-118.5-51.1-158.8-124.3
		c-18.2-33.3-35.4-63.2-50.8-101.3c-1.2-7,3-12.4,13.3-12.4h61.4c8.8,0,15.4,4.2,17.8,9.4c17.2,39.6,37.5,75,56.3,96.2
		c4.2,4.8,11.8,6.7,16.6,0c8.5-11.5,6.1-76.2,1.2-85c-8.5-16-22.7-10.9-22.7-13.9c0.6-9.4,13-17.8,59-18.1
		C276.4,131.2,293,134.6,293.6,149.4L293.6,149.4z M25.7,512h460.9c13.9,0,25.4-11.5,25.4-25.4V25.7C512,11.5,500.5,0,486.6,0H25.7
		C11.5,0,0,11.5,0,25.7v460.9C0,500.5,11.5,512,25.7,512L25.7,512z"/>
</g>
</svg>
